#N canvas 0 65 1280 670 10;
#X obj 132 16 notein;
#X floatatom 99 59 5 0 0 0 - - -;
#X floatatom 161 66 5 0 0 0 - - -;
#X floatatom 209 34 5 0 0 0 - - -;
#X obj 195 215 dac~;
#X obj 201 135 moses 15.875;
#X obj 161 99 moses 1;
#N canvas 0 22 450 278 (subpatch) 0;
#X array untitled 41472 float 2;
#X coords 0 1 41472 -1 200 140 1;
#X restore 167 517 graph;
#X msg 833 72 read -resize /Users/jbonhag/Desktop/untitled.aiff untitled
;
#X obj 692 407 soundfiler;
#X obj 201 169 tabplay~ untitled;
#X obj 323 214 dac~;
#X obj 446 213 dac~;
#X obj 578 213 dac~;
#X obj 188 330 dac~;
#X obj 316 329 dac~;
#X obj 439 328 dac~;
#X obj 571 328 dac~;
#X text 189 445 linear scale "breakpoints": 15.875 31.75 47.625 63.5
79.375 95.25 111.125;
#X obj 329 134 moses 31.75;
#X obj 452 133 moses 47.625;
#X obj 584 133 moses 63.5;
#X obj 194 250 moses 79.375;
#X obj 322 249 moses 95.25;
#X obj 445 248 moses 111.125;
#X obj 329 168 tabplay~ untitled-2;
#X obj 452 167 tabplay~ untitled-3;
#X obj 584 167 tabplay~ untitled-4;
#X obj 194 284 tabplay~ untitled-5;
#X obj 322 283 tabplay~ untitled-6;
#X obj 445 282 tabplay~ untitled-7;
#X obj 577 282 tabplay~ untitled-8;
#N canvas 0 22 450 278 (subpatch) 0;
#X array untitled-2 38912 float 2;
#X coords 0 1 38912 -1 200 140 1 0 0;
#X restore 381 518 graph;
#X msg 832 95 read -resize /Users/jbonhag/Desktop/untitled-2.aiff untitled-2
;
#X obj 745 16 loadbang;
#X msg 830 132 read -resize /Users/jbonhag/Desktop/untitled-3.aiff
untitled-3;
#X msg 830 164 read -resize /Users/jbonhag/Desktop/untitled-4.aiff
untitled-4;
#X msg 829 198 read -resize /Users/jbonhag/Desktop/untitled-5.aiff
untitled-5;
#X msg 830 231 read -resize /Users/jbonhag/Desktop/untitled-6.aiff
untitled-6;
#X msg 832 265 read -resize /Users/jbonhag/Desktop/untitled-7.aiff
untitled-7;
#X msg 832 296 read -resize /Users/jbonhag/Desktop/untitled-8.aiff
untitled-8;
#N canvas 0 22 450 278 (subpatch) 0;
#X array untitled-3 40960 float 2;
#X coords 0 1 40960 -1 200 140 1 0 0;
#X restore 597 519 graph;
#N canvas 0 22 450 278 (subpatch) 0;
#X array untitled-4 41984 float 2;
#X coords 0 1 41984 -1 200 140 1 0 0;
#X restore 811 519 graph;
#N canvas 0 22 450 278 (subpatch) 0;
#X array untitled-5 39424 float 2;
#X coords 0 1 39424 -1 200 140 1 0 0;
#X restore 165 682 graph;
#N canvas 0 22 450 278 (subpatch) 0;
#X array untitled-6 43008 float 2;
#X coords 0 1 43008 -1 200 140 1 0 0;
#X restore 379 683 graph;
#N canvas 0 22 450 278 (subpatch) 0;
#X array untitled-7 41984 float 2;
#X coords 0 1 41984 -1 200 140 1 0 0;
#X restore 595 683 graph;
#N canvas 0 22 450 278 (subpatch) 0;
#X array untitled-8 64923 float 2;
#X coords 0 1 64923 -1 200 140 1 0 0;
#X restore 809 684 graph;
#X connect 0 0 1 0;
#X connect 0 1 2 0;
#X connect 0 2 3 0;
#X connect 2 0 6 0;
#X connect 5 0 10 0;
#X connect 5 1 19 0;
#X connect 6 1 5 0;
#X connect 8 0 9 0;
#X connect 10 0 4 0;
#X connect 10 0 4 1;
#X connect 19 0 25 0;
#X connect 19 1 20 0;
#X connect 20 0 26 0;
#X connect 20 1 21 0;
#X connect 21 0 27 0;
#X connect 21 1 22 0;
#X connect 22 0 28 0;
#X connect 22 1 23 0;
#X connect 23 0 29 0;
#X connect 23 1 24 0;
#X connect 24 0 30 0;
#X connect 24 1 31 0;
#X connect 25 0 11 0;
#X connect 25 0 11 1;
#X connect 26 0 12 0;
#X connect 26 0 12 1;
#X connect 27 0 13 0;
#X connect 27 0 13 1;
#X connect 28 0 14 0;
#X connect 28 0 14 1;
#X connect 29 0 15 0;
#X connect 29 0 15 1;
#X connect 30 0 16 0;
#X connect 30 0 16 1;
#X connect 31 0 17 0;
#X connect 31 0 17 1;
#X connect 33 0 9 0;
#X connect 34 0 8 0;
#X connect 34 0 33 0;
#X connect 34 0 35 0;
#X connect 34 0 36 0;
#X connect 34 0 37 0;
#X connect 34 0 38 0;
#X connect 34 0 39 0;
#X connect 34 0 40 0;
#X connect 35 0 9 0;
#X connect 36 0 9 0;
#X connect 37 0 9 0;
#X connect 38 0 9 0;
#X connect 39 0 9 0;
#X connect 40 0 9 0;
